<svg width="16" height="16" viewBox="0 0 16 16" fill="none" xmlns="http://www.w3.org/2000/svg">
<path d="M1 6C1 4.89543 1.89543 4 3 4H7C8.10457 4 9 4.89543 9 6V12C9 13.1046 8.10457 14 7 14H3C1.89543 14 1 13.1046 1 12V6Z" fill="#7DF303"/>
<path d="M8.00025 1.73158C8.55262 0.775281 9.77523 0.447955 10.7317 1.00015L14.1956 3.00012C15.1521 3.55237 15.4802 4.77498 14.928 5.73153L11.928 10.9277C11.6127 11.4739 11.0785 11.8139 10.5003 11.9033V6.00008C10.5003 4.24819 9.2127 2.7967 7.53247 2.54017L8.00025 1.73158Z" fill="#7DF303"/>
</svg>
