<svg width="61" height="26" viewBox="0 0 61 26" fill="none" xmlns="http://www.w3.org/2000/svg">
<rect x="3" y="3" width="55" height="20" rx="10" fill="#4845F7"/>
<rect x="1.5" y="1.5" width="58" height="23" rx="11.5" stroke="white" stroke-opacity="0.6" stroke-width="3"/>
<path d="M16.4616 17.168C15.7976 17.168 15.1816 17.064 14.6136 16.856C14.0536 16.64 13.5656 16.336 13.1496 15.944C12.7416 15.552 12.4216 15.092 12.1896 14.564C11.9576 14.028 11.8416 13.44 11.8416 12.8C11.8416 12.16 11.9576 11.576 12.1896 11.048C12.4216 10.512 12.7416 10.048 13.1496 9.656C13.5656 9.264 14.0536 8.964 14.6136 8.756C15.1816 8.54 15.7976 8.432 16.4616 8.432C17.2376 8.432 17.9296 8.568 18.5376 8.84C19.1536 9.112 19.6656 9.504 20.0736 10.016L18.5616 11.384C18.2896 11.064 17.9896 10.82 17.6616 10.652C17.3416 10.484 16.9816 10.4 16.5816 10.4C16.2376 10.4 15.9216 10.456 15.6336 10.568C15.3456 10.68 15.0976 10.844 14.8896 11.06C14.6896 11.268 14.5296 11.52 14.4096 11.816C14.2976 12.112 14.2416 12.44 14.2416 12.8C14.2416 13.16 14.2976 13.488 14.4096 13.784C14.5296 14.08 14.6896 14.336 14.8896 14.552C15.0976 14.76 15.3456 14.92 15.6336 15.032C15.9216 15.144 16.2376 15.2 16.5816 15.2C16.9816 15.2 17.3416 15.116 17.6616 14.948C17.9896 14.78 18.2896 14.536 18.5616 14.216L20.0736 15.584C19.6656 16.088 19.1536 16.48 18.5376 16.76C17.9296 17.032 17.2376 17.168 16.4616 17.168ZM21.133 17V8.6H23.509V15.116H27.517V17H21.133ZM28.4572 17V8.6H30.8332V17H28.4572ZM36.7116 17.168C36.0476 17.168 35.4316 17.064 34.8636 16.856C34.3036 16.64 33.8156 16.336 33.3996 15.944C32.9916 15.552 32.6716 15.092 32.4396 14.564C32.2076 14.028 32.0916 13.44 32.0916 12.8C32.0916 12.16 32.2076 11.576 32.4396 11.048C32.6716 10.512 32.9916 10.048 33.3996 9.656C33.8156 9.264 34.3036 8.964 34.8636 8.756C35.4316 8.54 36.0476 8.432 36.7116 8.432C37.4876 8.432 38.1796 8.568 38.7876 8.84C39.4036 9.112 39.9156 9.504 40.3236 10.016L38.8116 11.384C38.5396 11.064 38.2396 10.82 37.9116 10.652C37.5916 10.484 37.2316 10.4 36.8316 10.4C36.4876 10.4 36.1716 10.456 35.8836 10.568C35.5956 10.68 35.3476 10.844 35.1396 11.06C34.9396 11.268 34.7796 11.52 34.6596 11.816C34.5476 12.112 34.4916 12.44 34.4916 12.8C34.4916 13.16 34.5476 13.488 34.6596 13.784C34.7796 14.08 34.9396 14.336 35.1396 14.552C35.3476 14.76 35.5956 14.92 35.8836 15.032C36.1716 15.144 36.4876 15.2 36.8316 15.2C37.2316 15.2 37.5916 15.116 37.9116 14.948C38.2396 14.78 38.5396 14.536 38.8116 14.216L40.3236 15.584C39.9156 16.088 39.4036 16.48 38.7876 16.76C38.1796 17.032 37.4876 17.168 36.7116 17.168ZM43.507 15.14L43.375 12.476L46.987 8.6H49.603L46.003 12.5L44.683 13.88L43.507 15.14ZM41.383 17V8.6H43.735V17H41.383ZM47.023 17L44.287 13.532L45.835 11.876L49.783 17H47.023Z" fill="white"/>
</svg>
