<svg width="269" height="134" viewBox="0 0 269 134" fill="none" xmlns="http://www.w3.org/2000/svg">
<g filter="url(#filter0_d_426_2479)">
<path d="M17.2613 58V13.2H27.6933L46.2533 43.664H40.7493L58.7973 13.2H69.2293L69.3573 58H57.7093L57.5813 30.928H59.5653L46.0613 53.584H40.4293L26.5413 30.928H28.9733V58H17.2613ZM89.9718 30.544H110.772V40.016H89.9718V30.544ZM90.8678 48.208H114.292V58H78.3238V13.2H113.46V22.992H90.8678V48.208ZM143.916 58.896C140.332 58.896 137.025 58.32 133.996 57.168C130.966 56.016 128.321 54.3947 126.06 52.304C123.841 50.1707 122.113 47.696 120.876 44.88C119.638 42.064 119.02 38.9707 119.02 35.6C119.02 32.2293 119.638 29.136 120.876 26.32C122.113 23.504 123.841 21.0507 126.06 18.96C128.321 16.8267 130.966 15.184 133.996 14.032C137.025 12.88 140.332 12.304 143.916 12.304C147.542 12.304 150.849 12.88 153.836 14.032C156.865 15.184 159.489 16.8267 161.708 18.96C163.926 21.0507 165.654 23.504 166.892 26.32C168.172 29.136 168.812 32.2293 168.812 35.6C168.812 38.9707 168.172 42.0853 166.892 44.944C165.654 47.76 163.926 50.2133 161.708 52.304C159.489 54.3947 156.865 56.016 153.836 57.168C150.849 58.32 147.542 58.896 143.916 58.896ZM143.916 48.4C145.622 48.4 147.201 48.1013 148.652 47.504C150.145 46.9067 151.425 46.0533 152.492 44.944C153.601 43.792 154.454 42.4267 155.052 40.848C155.692 39.2693 156.012 37.52 156.012 35.6C156.012 33.6373 155.692 31.888 155.052 30.352C154.454 28.7733 153.601 27.4293 152.492 26.32C151.425 25.168 150.145 24.2933 148.652 23.696C147.201 23.0987 145.622 22.8 143.916 22.8C142.209 22.8 140.609 23.0987 139.116 23.696C137.665 24.2933 136.385 25.168 135.276 26.32C134.209 27.4293 133.356 28.7733 132.716 30.352C132.118 31.888 131.82 33.6373 131.82 35.6C131.82 37.52 132.118 39.2693 132.716 40.848C133.356 42.4267 134.209 43.792 135.276 44.944C136.385 46.0533 137.665 46.9067 139.116 47.504C140.609 48.1013 142.209 48.4 143.916 48.4ZM185.021 58L170.493 13.2H183.549L195.773 51.984H189.181L202.045 13.2H213.693L225.853 51.984H219.517L232.125 13.2H244.221L229.693 58H216.125L205.757 25.04H209.405L198.589 58H185.021ZM12.105 114V69.2H35.017C40.905 69.2 45.2997 70.288 48.201 72.464C51.1023 74.5973 52.553 77.4133 52.553 80.912C52.553 83.216 51.9343 85.2427 50.697 86.992C49.5023 88.6987 47.7957 90.064 45.577 91.088C43.401 92.0693 40.7983 92.56 37.769 92.56L39.049 89.488C42.2063 89.488 44.9583 89.9787 47.305 90.96C49.6517 91.8987 51.465 93.2853 52.745 95.12C54.0677 96.912 54.729 99.1093 54.729 101.712C54.729 105.595 53.1503 108.624 49.993 110.8C46.8783 112.933 42.313 114 36.297 114H12.105ZM24.649 104.848H35.273C37.449 104.848 39.0917 104.485 40.201 103.76C41.353 102.992 41.929 101.84 41.929 100.304C41.929 98.768 41.353 97.6373 40.201 96.912C39.0917 96.144 37.449 95.76 35.273 95.76H23.753V86.992H33.353C35.4863 86.992 37.0863 86.6293 38.153 85.904C39.2197 85.1787 39.753 84.0907 39.753 82.64C39.753 81.1893 39.2197 80.1227 38.153 79.44C37.0863 78.7147 35.4863 78.352 33.353 78.352H24.649V104.848ZM61.2925 114V69.2H81.7725C85.8685 69.2 89.3885 69.8613 92.3325 71.184C95.3192 72.5067 97.6232 74.4267 99.2445 76.944C100.866 79.4187 101.677 82.3627 101.677 85.776C101.677 89.1467 100.866 92.0693 99.2445 94.544C97.6232 96.976 95.3192 98.8533 92.3325 100.176C89.3885 101.456 85.8685 102.096 81.7725 102.096H68.3325L73.9645 96.784V114H61.2925ZM89.0045 114L77.8685 97.68H91.3725L102.573 114H89.0045ZM73.9645 98.128L68.3325 92.304H81.0045C83.6498 92.304 85.6125 91.728 86.8925 90.576C88.2152 89.424 88.8765 87.824 88.8765 85.776C88.8765 83.6853 88.2152 82.064 86.8925 80.912C85.6125 79.76 83.6498 79.184 81.0045 79.184H68.3325L73.9645 73.36V98.128ZM120.316 86.544H141.116V96.016H120.316V86.544ZM121.212 104.208H144.636V114H108.668V69.2H143.804V78.992H121.212V104.208ZM146.291 114L166.068 69.2H178.548L198.388 114H185.204L169.716 75.408H174.708L159.22 114H146.291ZM157.108 105.296L160.372 95.952H182.26L185.524 105.296H157.108ZM201.98 114V69.2H223.164C228.113 69.2 232.465 70.1173 236.22 71.952C239.975 73.7867 242.897 76.368 244.988 79.696C247.121 83.024 248.188 86.992 248.188 91.6C248.188 96.1653 247.121 100.133 244.988 103.504C242.897 106.832 239.975 109.413 236.22 111.248C232.465 113.083 228.113 114 223.164 114H201.98ZM214.652 103.888H222.652C225.212 103.888 227.431 103.419 229.308 102.48C231.228 101.499 232.721 100.091 233.788 98.256C234.855 96.3787 235.388 94.16 235.388 91.6C235.388 88.9973 234.855 86.7787 233.788 84.944C232.721 83.1093 231.228 81.7227 229.308 80.784C227.431 79.8027 225.212 79.312 222.652 79.312H214.652V103.888Z" fill="url(#paint0_linear_426_2479)"/>
</g>
<defs>
<filter id="filter0_d_426_2479" x="0.105003" y="0.304001" width="268.083" height="133.696" filterUnits="userSpaceOnUse" color-interpolation-filters="sRGB">
<feFlood flood-opacity="0" result="BackgroundImageFix"/>
<feColorMatrix in="SourceAlpha" type="matrix" values="0 0 0 0 0 0 0 0 0 0 0 0 0 0 0 0 0 0 127 0" result="hardAlpha"/>
<feOffset dx="4" dy="4"/>
<feGaussianBlur stdDeviation="8"/>
<feComposite in2="hardAlpha" operator="out"/>
<feColorMatrix type="matrix" values="0 0 0 0 1 0 0 0 0 1 0 0 0 0 1 0 0 0 0.4 0"/>
<feBlend mode="normal" in2="BackgroundImageFix" result="effect1_dropShadow_426_2479"/>
<feBlend mode="normal" in="SourceGraphic" in2="effect1_dropShadow_426_2479" result="shape"/>
</filter>
<linearGradient id="paint0_linear_426_2479" x1="129" y1="7" x2="129" y2="119" gradientUnits="userSpaceOnUse">
<stop stop-color="#4845F7"/>
<stop offset="1" stop-color="#302E8B"/>
</linearGradient>
</defs>
</svg>
