<svg width="237" height="102" viewBox="0 0 237 102" fill="none" xmlns="http://www.w3.org/2000/svg">
<path d="M5.76125 46V1.2H16.1933L34.7533 31.664H29.2493L47.2973 1.2H57.7293L57.8573 46H46.2093L46.0813 18.928H48.0653L34.5613 41.584H28.9293L15.0413 18.928H17.4733V46H5.76125ZM78.4718 18.544H99.2718V28.016H78.4718V18.544ZM79.3678 36.208H102.792V46H66.8238V1.2H101.96V10.992H79.3678V36.208ZM132.416 46.896C128.832 46.896 125.525 46.32 122.496 45.168C119.466 44.016 116.821 42.3947 114.56 40.304C112.341 38.1707 110.613 35.696 109.376 32.88C108.138 30.064 107.52 26.9707 107.52 23.6C107.52 20.2293 108.138 17.136 109.376 14.32C110.613 11.504 112.341 9.05066 114.56 6.96C116.821 4.82667 119.466 3.184 122.496 2.032C125.525 0.879997 128.832 0.303997 132.416 0.303997C136.042 0.303997 139.349 0.879997 142.336 2.032C145.365 3.184 147.989 4.82667 150.208 6.96C152.426 9.05066 154.154 11.504 155.392 14.32C156.672 17.136 157.312 20.2293 157.312 23.6C157.312 26.9707 156.672 30.0853 155.392 32.944C154.154 35.76 152.426 38.2133 150.208 40.304C147.989 42.3947 145.365 44.016 142.336 45.168C139.349 46.32 136.042 46.896 132.416 46.896ZM132.416 36.4C134.122 36.4 135.701 36.1013 137.152 35.504C138.645 34.9067 139.925 34.0533 140.992 32.944C142.101 31.792 142.954 30.4267 143.552 28.848C144.192 27.2693 144.512 25.52 144.512 23.6C144.512 21.6373 144.192 19.888 143.552 18.352C142.954 16.7733 142.101 15.4293 140.992 14.32C139.925 13.168 138.645 12.2933 137.152 11.696C135.701 11.0987 134.122 10.8 132.416 10.8C130.709 10.8 129.109 11.0987 127.616 11.696C126.165 12.2933 124.885 13.168 123.776 14.32C122.709 15.4293 121.856 16.7733 121.216 18.352C120.618 19.888 120.32 21.6373 120.32 23.6C120.32 25.52 120.618 27.2693 121.216 28.848C121.856 30.4267 122.709 31.792 123.776 32.944C124.885 34.0533 126.165 34.9067 127.616 35.504C129.109 36.1013 130.709 36.4 132.416 36.4ZM173.521 46L158.993 1.2H172.049L184.273 39.984H177.681L190.545 1.2H202.193L214.353 39.984H208.017L220.625 1.2H232.721L218.193 46H204.625L194.257 13.04H197.905L187.089 46H173.521ZM0.605 102V57.2H23.517C29.405 57.2 33.7997 58.288 36.701 60.464C39.6023 62.5973 41.053 65.4133 41.053 68.912C41.053 71.216 40.4343 73.2427 39.197 74.992C38.0023 76.6987 36.2957 78.064 34.077 79.088C31.901 80.0693 29.2983 80.56 26.269 80.56L27.549 77.488C30.7063 77.488 33.4583 77.9787 35.805 78.96C38.1517 79.8987 39.965 81.2853 41.245 83.12C42.5677 84.912 43.229 87.1093 43.229 89.712C43.229 93.5947 41.6503 96.624 38.493 98.8C35.3783 100.933 30.813 102 24.797 102H0.605ZM13.149 92.848H23.773C25.949 92.848 27.5917 92.4853 28.701 91.76C29.853 90.992 30.429 89.84 30.429 88.304C30.429 86.768 29.853 85.6373 28.701 84.912C27.5917 84.144 25.949 83.76 23.773 83.76H12.253V74.992H21.853C23.9863 74.992 25.5863 74.6293 26.653 73.904C27.7197 73.1787 28.253 72.0907 28.253 70.64C28.253 69.1893 27.7197 68.1227 26.653 67.44C25.5863 66.7147 23.9863 66.352 21.853 66.352H13.149V92.848ZM49.7925 102V57.2H70.2725C74.3685 57.2 77.8885 57.8613 80.8325 59.184C83.8192 60.5067 86.1232 62.4267 87.7445 64.944C89.3658 67.4187 90.1765 70.3627 90.1765 73.776C90.1765 77.1467 89.3658 80.0693 87.7445 82.544C86.1232 84.976 83.8192 86.8533 80.8325 88.176C77.8885 89.456 74.3685 90.096 70.2725 90.096H56.8325L62.4645 84.784V102H49.7925ZM77.5045 102L66.3685 85.68H79.8725L91.0725 102H77.5045ZM62.4645 86.128L56.8325 80.304H69.5045C72.1498 80.304 74.1125 79.728 75.3925 78.576C76.7152 77.424 77.3765 75.824 77.3765 73.776C77.3765 71.6853 76.7152 70.064 75.3925 68.912C74.1125 67.76 72.1498 67.184 69.5045 67.184H56.8325L62.4645 61.36V86.128ZM108.816 74.544H129.616V84.016H108.816V74.544ZM109.712 92.208H133.136V102H97.1675V57.2H132.304V66.992H109.712V92.208ZM134.791 102L154.568 57.2H167.048L186.888 102H173.704L158.216 63.408H163.208L147.72 102H134.791ZM145.608 93.296L148.872 83.952H170.76L174.024 93.296H145.608ZM190.48 102V57.2H211.664C216.613 57.2 220.965 58.1173 224.72 59.952C228.475 61.7867 231.397 64.368 233.488 67.696C235.621 71.024 236.688 74.992 236.688 79.6C236.688 84.1653 235.621 88.1333 233.488 91.504C231.397 94.832 228.475 97.4133 224.72 99.248C220.965 101.083 216.613 102 211.664 102H190.48ZM203.152 91.888H211.152C213.712 91.888 215.931 91.4187 217.808 90.48C219.728 89.4987 221.221 88.0907 222.288 86.256C223.355 84.3787 223.888 82.16 223.888 79.6C223.888 76.9973 223.355 74.7787 222.288 72.944C221.221 71.1093 219.728 69.7227 217.808 68.784C215.931 67.8027 213.712 67.312 211.152 67.312H203.152V91.888Z" fill="url(#paint0_linear_297_5207)"/>
<defs>
<linearGradient id="paint0_linear_297_5207" x1="117.5" y1="-5" x2="117.5" y2="107" gradientUnits="userSpaceOnUse">
<stop stop-color="#4845F7"/>
<stop offset="1" stop-color="#302E8B"/>
</linearGradient>
</defs>
</svg>
