<svg width="244" height="84" viewBox="0 0 244 84" fill="none" xmlns="http://www.w3.org/2000/svg">
<path d="M220.756 83V60.6H231.348C233.822 60.6 235.998 61.0587 237.876 61.976C239.753 62.8933 241.214 64.184 242.26 65.848C243.326 67.512 243.86 69.496 243.86 71.8C243.86 74.0827 243.326 76.0667 242.26 77.752C241.214 79.416 239.753 80.7067 237.876 81.624C235.998 82.5413 233.822 83 231.348 83H220.756ZM227.092 77.944H231.092C232.372 77.944 233.481 77.7093 234.42 77.24C235.38 76.7493 236.126 76.0453 236.66 75.128C237.193 74.1893 237.46 73.08 237.46 71.8C237.46 70.4987 237.193 69.3893 236.66 68.472C236.126 67.5547 235.38 66.8613 234.42 66.392C233.481 65.9013 232.372 65.656 231.092 65.656H227.092V77.944Z" fill="url(#paint0_linear_389_1990)"/>
<path d="M192.911 83L202.799 60.6H209.039L218.959 83H212.367L204.623 63.704H207.119L199.375 83H192.911ZM198.319 78.648L199.951 73.976H210.895L212.527 78.648H198.319Z" fill="url(#paint1_linear_389_1990)"/>
<path d="M179.923 69.272H190.323V74.008H179.923V69.272ZM180.371 78.104H192.083V83H174.099V60.6H191.667V65.496H180.371V78.104Z" fill="url(#paint2_linear_389_1990)"/>
<path d="M150.412 83V60.6H160.652C162.7 60.6 164.46 60.9307 165.932 61.592C167.425 62.2533 168.577 63.2133 169.388 64.472C170.199 65.7093 170.604 67.1813 170.604 68.888C170.604 70.5733 170.199 72.0347 169.388 73.272C168.577 74.488 167.425 75.4267 165.932 76.088C164.46 76.728 162.7 77.048 160.652 77.048H153.932L156.748 74.392V83H150.412ZM164.268 83L158.7 74.84H165.452L171.052 83H164.268ZM156.748 75.064L153.932 72.152H160.268C161.591 72.152 162.572 71.864 163.212 71.288C163.873 70.712 164.204 69.912 164.204 68.888C164.204 67.8427 163.873 67.032 163.212 66.456C162.572 65.88 161.591 65.592 160.268 65.592H153.932L156.748 62.68V75.064Z" fill="url(#paint3_linear_389_1990)"/>
<path d="M125.818 83V60.6H137.274C140.218 60.6 142.415 61.144 143.866 62.232C145.317 63.2987 146.042 64.7067 146.042 66.456C146.042 67.608 145.733 68.6213 145.114 69.496C144.517 70.3493 143.663 71.032 142.554 71.544C141.466 72.0347 140.165 72.28 138.65 72.28L139.29 70.744C140.869 70.744 142.245 70.9893 143.418 71.48C144.591 71.9493 145.498 72.6427 146.138 73.56C146.799 74.456 147.13 75.5547 147.13 76.856C147.13 78.7973 146.341 80.312 144.762 81.4C143.205 82.4667 140.922 83 137.914 83H125.818ZM132.09 78.424H137.402C138.49 78.424 139.311 78.2427 139.866 77.88C140.442 77.496 140.73 76.92 140.73 76.152C140.73 75.384 140.442 74.8187 139.866 74.456C139.311 74.072 138.49 73.88 137.402 73.88H131.642V69.496H136.442C137.509 69.496 138.309 69.3147 138.842 68.952C139.375 68.5893 139.642 68.0453 139.642 67.32C139.642 66.5947 139.375 66.0613 138.842 65.72C138.309 65.3573 137.509 65.176 136.442 65.176H132.09V78.424Z" fill="url(#paint4_linear_389_1990)"/>
<path d="M84.1666 83L76.9026 60.6H83.4306L89.5426 79.992H86.2466L92.6786 60.6H98.5026L104.583 79.992H101.415L107.719 60.6H113.767L106.503 83H99.7186L94.5346 66.52H96.3586L90.9506 83H84.1666Z" fill="url(#paint5_linear_389_1990)"/>
<path d="M63.6141 83.448C61.8221 83.448 60.1688 83.16 58.6541 82.584C57.1395 82.008 55.8168 81.1973 54.6861 80.152C53.5768 79.0853 52.7128 77.848 52.0941 76.44C51.4755 75.032 51.1661 73.4853 51.1661 71.8C51.1661 70.1147 51.4755 68.568 52.0941 67.16C52.7128 65.752 53.5768 64.5253 54.6861 63.48C55.8168 62.4133 57.1395 61.592 58.6541 61.016C60.1688 60.44 61.8221 60.152 63.6141 60.152C65.4275 60.152 67.0808 60.44 68.5741 61.016C70.0888 61.592 71.4008 62.4133 72.5101 63.48C73.6195 64.5253 74.4835 65.752 75.1021 67.16C75.7421 68.568 76.0621 70.1147 76.0621 71.8C76.0621 73.4853 75.7421 75.0427 75.1021 76.472C74.4835 77.88 73.6195 79.1067 72.5101 80.152C71.4008 81.1973 70.0888 82.008 68.5741 82.584C67.0808 83.16 65.4275 83.448 63.6141 83.448ZM63.6141 78.2C64.4675 78.2 65.2568 78.0507 65.9821 77.752C66.7288 77.4533 67.3688 77.0267 67.9021 76.472C68.4568 75.896 68.8835 75.2133 69.1821 74.424C69.5021 73.6347 69.6621 72.76 69.6621 71.8C69.6621 70.8187 69.5021 69.944 69.1821 69.176C68.8835 68.3867 68.4568 67.7147 67.9021 67.16C67.3688 66.584 66.7288 66.1467 65.9821 65.848C65.2568 65.5493 64.4675 65.4 63.6141 65.4C62.7608 65.4 61.9608 65.5493 61.2141 65.848C60.4888 66.1467 59.8488 66.584 59.2941 67.16C58.7608 67.7147 58.3341 68.3867 58.0141 69.176C57.7155 69.944 57.5661 70.8187 57.5661 71.8C57.5661 72.76 57.7155 73.6347 58.0141 74.424C58.3341 75.2133 58.7608 75.896 59.2941 76.472C59.8488 77.0267 60.4888 77.4533 61.2141 77.752C61.9608 78.0507 62.7608 78.2 63.6141 78.2Z" fill="url(#paint6_linear_389_1990)"/>
<path d="M36.6421 69.272H47.0421V74.008H36.6421V69.272ZM37.0901 78.104H48.8021V83H30.8181V60.6H48.3861V65.496H37.0901V78.104Z" fill="url(#paint7_linear_389_1990)"/>
<path d="M0.286865 83V60.6H5.50287L14.7829 75.832H12.0309L21.0549 60.6H26.2709L26.3349 83H20.5109L20.4469 69.464H21.4389L14.6869 80.792H11.8709L4.92687 69.464H6.14287V83H0.286865Z" fill="url(#paint8_linear_389_1990)"/>
<path d="M206.263 4.52C207.095 5.096 208.071 5.8 209.191 6.632C210.311 7.464 211.463 8.376 212.647 9.368C213.863 10.328 214.999 11.272 216.055 12.2C217.111 13.128 217.975 13.96 218.647 14.696L213.751 19.688C213.143 19.016 212.343 18.216 211.351 17.288C210.359 16.36 209.287 15.4 208.135 14.408C206.983 13.416 205.847 12.472 204.727 11.576C203.607 10.68 202.615 9.928 201.751 9.32L206.263 4.52ZM200.263 36.488C202.759 36.136 205.111 35.64 207.319 35C209.527 34.36 211.575 33.624 213.463 32.792C215.351 31.96 217.079 31.096 218.647 30.2C221.367 28.568 223.863 26.712 226.135 24.632C228.407 22.552 230.391 20.392 232.087 18.152C233.783 15.88 235.127 13.672 236.119 11.528L239.863 18.296C238.647 20.44 237.143 22.584 235.351 24.728C233.591 26.872 231.591 28.92 229.351 30.872C227.111 32.792 224.695 34.52 222.103 36.056C220.471 37.048 218.711 37.992 216.823 38.888C214.935 39.752 212.935 40.52 210.823 41.192C208.743 41.896 206.567 42.44 204.295 42.824L200.263 36.488Z" fill="url(#paint9_linear_389_1990)"/>
<path d="M182.753 6.488C182.753 7.256 183.025 7.912 183.569 8.456C184.113 8.968 184.769 9.224 185.537 9.224C186.305 9.224 186.961 8.968 187.505 8.456C188.049 7.912 188.321 7.256 188.321 6.488C188.321 5.72 188.049 5.064 187.505 4.52C186.961 3.976 186.305 3.704 185.537 3.704C184.769 3.704 184.113 3.976 183.569 4.52C183.025 5.064 182.753 5.72 182.753 6.488ZM179.777 6.488C179.777 5.432 180.033 4.472 180.545 3.608C181.089 2.712 181.793 2.008 182.657 1.496C183.521 0.983997 184.481 0.727997 185.537 0.727997C186.593 0.727997 187.553 0.983997 188.417 1.496C189.281 2.008 189.969 2.712 190.481 3.608C191.025 4.472 191.297 5.432 191.297 6.488C191.297 7.512 191.025 8.456 190.481 9.32C189.969 10.184 189.281 10.888 188.417 11.432C187.553 11.944 186.593 12.2 185.537 12.2C184.481 12.2 183.521 11.944 182.657 11.432C181.793 10.888 181.089 10.184 180.545 9.32C180.033 8.456 179.777 7.512 179.777 6.488ZM153.521 26.072C154.065 24.728 154.577 23.32 155.057 21.848C155.569 20.344 156.017 18.808 156.401 17.24C156.785 15.64 157.121 14.056 157.409 12.488C157.729 10.92 157.953 9.368 158.081 7.832L165.089 9.272C164.961 9.72 164.817 10.248 164.657 10.856C164.497 11.464 164.353 12.056 164.225 12.632C164.097 13.208 164.001 13.688 163.937 14.072C163.777 14.904 163.553 15.912 163.265 17.096C162.977 18.28 162.641 19.544 162.257 20.888C161.873 22.2 161.473 23.528 161.057 24.872C160.673 26.184 160.273 27.4 159.857 28.52C159.281 30.056 158.593 31.656 157.793 33.32C157.025 34.984 156.193 36.584 155.297 38.12C154.433 39.656 153.585 41.032 152.753 42.248L146.033 39.416C147.569 37.432 148.993 35.24 150.305 32.84C151.649 30.44 152.721 28.184 153.521 26.072ZM177.233 25.064C176.753 23.784 176.225 22.424 175.649 20.984C175.073 19.544 174.465 18.104 173.825 16.664C173.185 15.224 172.561 13.864 171.953 12.584C171.345 11.304 170.785 10.2 170.273 9.272L176.657 7.208C177.137 8.136 177.697 9.256 178.337 10.568C178.977 11.88 179.617 13.272 180.257 14.744C180.897 16.184 181.521 17.624 182.129 19.064C182.737 20.504 183.281 21.8 183.761 22.952C184.177 24.008 184.625 25.256 185.105 26.696C185.617 28.136 186.129 29.64 186.641 31.208C187.185 32.744 187.681 34.248 188.129 35.72C188.609 37.192 189.009 38.52 189.329 39.704L182.225 42.008C181.809 40.12 181.329 38.2 180.785 36.248C180.241 34.296 179.665 32.376 179.057 30.488C178.481 28.6 177.873 26.792 177.233 25.064Z" fill="url(#paint10_linear_389_1990)"/>
<path d="M124.673 8.11999C124.353 10.552 123.937 13.144 123.425 15.896C122.913 18.648 122.225 21.432 121.361 24.248C120.433 27.48 119.345 30.264 118.097 32.6C116.849 34.936 115.473 36.744 113.969 38.024C112.497 39.272 110.881 39.896 109.121 39.896C107.361 39.896 105.729 39.304 104.225 38.12C102.753 36.904 101.569 35.24 100.673 33.128C99.8087 31.016 99.3767 28.616 99.3767 25.928C99.3767 23.144 99.9367 20.52 101.057 18.056C102.177 15.592 103.729 13.416 105.713 11.528C107.729 9.608 110.065 8.104 112.721 7.016C115.409 5.928 118.305 5.384 121.409 5.384C124.385 5.384 127.057 5.864 129.425 6.824C131.825 7.784 133.873 9.112 135.569 10.808C137.265 12.504 138.561 14.488 139.457 16.76C140.353 19.032 140.801 21.48 140.801 24.104C140.801 27.464 140.113 30.472 138.737 33.128C137.361 35.784 135.313 37.976 132.593 39.704C129.905 41.432 126.545 42.616 122.513 43.256L118.913 37.544C119.841 37.448 120.657 37.336 121.361 37.208C122.065 37.08 122.737 36.936 123.377 36.776C124.913 36.392 126.337 35.848 127.649 35.144C128.993 34.408 130.161 33.512 131.153 32.456C132.145 31.368 132.913 30.104 133.457 28.664C134.033 27.224 134.321 25.64 134.321 23.912C134.321 22.024 134.033 20.296 133.457 18.728C132.881 17.16 132.033 15.8 130.913 14.648C129.793 13.464 128.433 12.568 126.833 11.96C125.233 11.32 123.393 11 121.313 11C118.753 11 116.497 11.464 114.545 12.392C112.593 13.288 110.945 14.456 109.601 15.896C108.257 17.336 107.233 18.888 106.529 20.552C105.857 22.216 105.521 23.8 105.521 25.304C105.521 26.904 105.713 28.248 106.097 29.336C106.481 30.392 106.945 31.192 107.489 31.736C108.065 32.248 108.673 32.504 109.313 32.504C109.985 32.504 110.641 32.168 111.281 31.496C111.953 30.792 112.609 29.736 113.249 28.328C113.889 26.92 114.529 25.144 115.169 23C115.905 20.696 116.529 18.232 117.041 15.608C117.553 12.984 117.921 10.424 118.145 7.928L124.673 8.11999Z" fill="url(#paint11_linear_389_1990)"/>
<path d="M77.1047 0.199997H82.8167V5.672H77.1047V0.199997ZM66.5447 3.416H93.0407V7.592H66.5447V3.416ZM65.4407 11.144H94.6247V15.512H65.4407V11.144ZM70.6727 7.832L75.0407 6.632C75.4567 7.368 75.8247 8.184 76.1447 9.08C76.4647 9.976 76.7047 10.744 76.8647 11.384L72.2567 12.776C72.1607 12.104 71.9527 11.304 71.6327 10.376C71.3447 9.448 71.0247 8.6 70.6727 7.832ZM84.3047 6.344L89.2007 7.448C88.7527 8.504 88.3047 9.512 87.8567 10.472C87.4407 11.432 87.0567 12.264 86.7047 12.968L82.4327 11.912C82.7847 11.112 83.1367 10.2 83.4887 9.176C83.8727 8.12 84.1447 7.176 84.3047 6.344ZM73.3607 25.784V27.704H86.9927V25.784H73.3607ZM73.3607 20.648V22.52H86.9927V20.648H73.3607ZM68.1287 17.192H92.4167V31.16H68.1287V17.192ZM66.8327 33.368L71.4887 34.712C71.1367 36.6 70.6087 38.408 69.9047 40.136C69.2327 41.864 68.2087 43.32 66.8327 44.504L62.6087 41.864C63.7607 40.872 64.6727 39.624 65.3447 38.12C66.0487 36.584 66.5447 35 66.8327 33.368ZM72.5447 33.56H77.5847V39.176C77.5847 39.72 77.6647 40.072 77.8247 40.232C78.0167 40.36 78.4487 40.424 79.1207 40.424C79.2487 40.424 79.4727 40.424 79.7927 40.424C80.1127 40.424 80.4807 40.424 80.8967 40.424C81.3127 40.424 81.6967 40.424 82.0487 40.424C82.4007 40.424 82.6567 40.424 82.8167 40.424C83.2007 40.424 83.4727 40.36 83.6327 40.232C83.8247 40.104 83.9687 39.832 84.0647 39.416C84.1607 38.968 84.2247 38.264 84.2567 37.304C84.7687 37.688 85.4727 38.056 86.3687 38.408C87.2647 38.76 88.0647 39.016 88.7687 39.176C88.5767 40.744 88.2727 41.944 87.8567 42.776C87.4727 43.64 86.9127 44.232 86.1767 44.552C85.4727 44.904 84.5607 45.08 83.4407 45.08C83.1847 45.08 82.8167 45.08 82.3367 45.08C81.8887 45.08 81.3927 45.08 80.8487 45.08C80.3367 45.08 79.8407 45.08 79.3607 45.08C78.9127 45.08 78.5767 45.08 78.3527 45.08C76.7527 45.08 75.5207 44.888 74.6567 44.504C73.8247 44.152 73.2647 43.544 72.9767 42.68C72.6887 41.848 72.5447 40.696 72.5447 39.224V33.56ZM74.8967 32.36L77.7767 29.528C78.8967 30.136 80.0807 30.888 81.3287 31.784C82.6087 32.648 83.5847 33.464 84.2567 34.232L81.2327 37.4C80.5927 36.632 79.6647 35.784 78.4487 34.856C77.2327 33.896 76.0487 33.064 74.8967 32.36ZM85.1207 35L89.1047 32.792C89.9687 33.688 90.8007 34.68 91.6007 35.768C92.4327 36.824 93.1687 37.896 93.8087 38.984C94.4487 40.04 94.9287 41.032 95.2487 41.96L90.9287 44.408C90.6407 43.512 90.1927 42.52 89.5847 41.432C88.9767 40.376 88.2887 39.272 87.5207 38.12C86.7527 36.968 85.9527 35.928 85.1207 35ZM55.6967 0.199997H61.1207V45.272H55.6967V0.199997ZM51.4727 9.704L55.1207 10.184C55.1207 11.72 55.0407 13.32 54.8807 14.984C54.7527 16.648 54.5127 18.264 54.1607 19.832C53.8087 21.368 53.3447 22.728 52.7687 23.912L49.2167 22.328C49.6967 21.304 50.0967 20.088 50.4167 18.68C50.7687 17.272 51.0247 15.784 51.1847 14.216C51.3767 12.648 51.4727 11.144 51.4727 9.704ZM60.2567 9.56L63.5687 8.36C64.2727 9.832 64.8967 11.416 65.4407 13.112C65.9847 14.808 66.3367 16.248 66.4967 17.432L62.9447 18.872C62.8167 17.656 62.4967 16.168 61.9847 14.408C61.5047 12.648 60.9287 11.032 60.2567 9.56Z" fill="url(#paint12_linear_389_1990)"/>
<path d="M25.8407 18.152H41.6807V23.624H25.8407V18.152ZM23.4887 18.152H29.3447V37.064C29.3447 38.088 29.5047 38.744 29.8247 39.032C30.1447 39.32 30.8807 39.464 32.0327 39.464C32.3207 39.464 32.7527 39.464 33.3287 39.464C33.9367 39.464 34.6087 39.464 35.3447 39.464C36.0807 39.464 36.7687 39.464 37.4087 39.464C38.0487 39.464 38.5287 39.464 38.8487 39.464C39.6167 39.464 40.1767 39.288 40.5287 38.936C40.8807 38.584 41.1367 37.896 41.2967 36.872C41.4887 35.816 41.6327 34.296 41.7287 32.312C42.1767 32.6 42.7047 32.904 43.3127 33.224C43.9207 33.512 44.5607 33.784 45.2327 34.04C45.9367 34.264 46.5447 34.44 47.0567 34.568C46.8327 37.224 46.4647 39.304 45.9527 40.808C45.4407 42.312 44.6567 43.368 43.6007 43.976C42.5767 44.584 41.1367 44.888 39.2807 44.888C39.0247 44.888 38.6247 44.888 38.0807 44.888C37.5367 44.888 36.9287 44.888 36.2567 44.888C35.6167 44.888 34.9607 44.888 34.2887 44.888C33.6167 44.888 33.0087 44.888 32.4647 44.888C31.9527 44.888 31.5687 44.888 31.3127 44.888C29.3287 44.888 27.7607 44.664 26.6087 44.216C25.4887 43.768 24.6887 42.984 24.2087 41.864C23.7287 40.744 23.4887 39.16 23.4887 37.112V18.152ZM23.3927 2.648H44.4647V26.024H38.7047V8.12H23.3927V2.648ZM4.09669 14.936H19.6007V19.304H4.09669V14.936ZM4.38469 1.736H19.6967V6.056H4.38469V1.736ZM4.09669 21.512H19.6007V25.832H4.09669V21.512ZM1.74469 8.168H21.4727V12.728H1.74469V8.168ZM6.73669 28.136H19.4567V42.776H6.73669V38.216H14.3687V32.696H6.73669V28.136ZM3.95269 28.136H8.94469V44.648H3.95269V28.136Z" fill="url(#paint13_linear_389_1990)"/>
<defs>
<linearGradient id="paint0_linear_389_1990" x1="-2" y1="72" x2="245" y2="72" gradientUnits="userSpaceOnUse">
<stop stop-color="#2F2D9E"/>
<stop offset="1" stop-color="#4845F7"/>
</linearGradient>
<linearGradient id="paint1_linear_389_1990" x1="-2" y1="72" x2="245" y2="72" gradientUnits="userSpaceOnUse">
<stop stop-color="#2F2D9E"/>
<stop offset="1" stop-color="#4845F7"/>
</linearGradient>
<linearGradient id="paint2_linear_389_1990" x1="-2.00001" y1="72" x2="245" y2="72" gradientUnits="userSpaceOnUse">
<stop stop-color="#2F2D9E"/>
<stop offset="1" stop-color="#4845F7"/>
</linearGradient>
<linearGradient id="paint3_linear_389_1990" x1="-1.99999" y1="72" x2="245" y2="72" gradientUnits="userSpaceOnUse">
<stop stop-color="#2F2D9E"/>
<stop offset="1" stop-color="#4845F7"/>
</linearGradient>
<linearGradient id="paint4_linear_389_1990" x1="-2" y1="72" x2="245" y2="72" gradientUnits="userSpaceOnUse">
<stop stop-color="#2F2D9E"/>
<stop offset="1" stop-color="#4845F7"/>
</linearGradient>
<linearGradient id="paint5_linear_389_1990" x1="-2" y1="72" x2="245" y2="72" gradientUnits="userSpaceOnUse">
<stop stop-color="#2F2D9E"/>
<stop offset="1" stop-color="#4845F7"/>
</linearGradient>
<linearGradient id="paint6_linear_389_1990" x1="-2" y1="72" x2="245" y2="72" gradientUnits="userSpaceOnUse">
<stop stop-color="#2F2D9E"/>
<stop offset="1" stop-color="#4845F7"/>
</linearGradient>
<linearGradient id="paint7_linear_389_1990" x1="-2" y1="72" x2="245" y2="72" gradientUnits="userSpaceOnUse">
<stop stop-color="#2F2D9E"/>
<stop offset="1" stop-color="#4845F7"/>
</linearGradient>
<linearGradient id="paint8_linear_389_1990" x1="-2" y1="72" x2="245" y2="72" gradientUnits="userSpaceOnUse">
<stop stop-color="#2F2D9E"/>
<stop offset="1" stop-color="#4845F7"/>
</linearGradient>
<linearGradient id="paint9_linear_389_1990" x1="5.58708e-06" y1="24" x2="243" y2="24" gradientUnits="userSpaceOnUse">
<stop stop-color="#2F2D9E"/>
<stop offset="1" stop-color="#4845F7"/>
</linearGradient>
<linearGradient id="paint10_linear_389_1990" x1="-4.53171e-06" y1="24" x2="243" y2="24" gradientUnits="userSpaceOnUse">
<stop stop-color="#2F2D9E"/>
<stop offset="1" stop-color="#4845F7"/>
</linearGradient>
<linearGradient id="paint11_linear_389_1990" x1="2.85522e-06" y1="24" x2="243" y2="24" gradientUnits="userSpaceOnUse">
<stop stop-color="#2F2D9E"/>
<stop offset="1" stop-color="#4845F7"/>
</linearGradient>
<linearGradient id="paint12_linear_389_1990" x1="-2.32693e-06" y1="24" x2="243" y2="24" gradientUnits="userSpaceOnUse">
<stop stop-color="#2F2D9E"/>
<stop offset="1" stop-color="#4845F7"/>
</linearGradient>
<linearGradient id="paint13_linear_389_1990" x1="2.27093e-08" y1="24" x2="243" y2="24" gradientUnits="userSpaceOnUse">
<stop stop-color="#2F2D9E"/>
<stop offset="1" stop-color="#4845F7"/>
</linearGradient>
</defs>
</svg>
