<svg width="207" height="88" viewBox="0 0 207 88" fill="none" xmlns="http://www.w3.org/2000/svg">
<path d="M4.72859 40V0.799997H13.8566L30.0966 27.456H25.2806L41.0726 0.799997H50.2006L50.3126 40H40.1206L40.0086 16.312H41.7446L29.9286 36.136H25.0006L12.8486 16.312H14.9766V40H4.72859ZM68.3503 15.976H86.5503V24.264H68.3503V15.976ZM69.1343 31.432H89.6303V40H58.1583V0.799997H88.9023V9.368H69.1343V31.432ZM115.551 40.784C112.415 40.784 109.522 40.28 106.871 39.272C104.221 38.264 101.906 36.8453 99.9273 35.016C97.9859 33.1493 96.4739 30.984 95.3913 28.52C94.3086 26.056 93.7673 23.3493 93.7673 20.4C93.7673 17.4507 94.3086 14.744 95.3913 12.28C96.4739 9.816 97.9859 7.66933 99.9273 5.84C101.906 3.97333 104.221 2.536 106.871 1.528C109.522 0.519998 112.415 0.0159974 115.551 0.0159974C118.725 0.0159974 121.618 0.519998 124.231 1.528C126.882 2.536 129.178 3.97333 131.119 5.84C133.061 7.66933 134.573 9.816 135.655 12.28C136.775 14.744 137.335 17.4507 137.335 20.4C137.335 23.3493 136.775 26.0747 135.655 28.576C134.573 31.04 133.061 33.1867 131.119 35.016C129.178 36.8453 126.882 38.264 124.231 39.272C121.618 40.28 118.725 40.784 115.551 40.784ZM115.551 31.6C117.045 31.6 118.426 31.3387 119.695 30.816C121.002 30.2933 122.122 29.5467 123.055 28.576C124.026 27.568 124.773 26.3733 125.295 24.992C125.855 23.6107 126.135 22.08 126.135 20.4C126.135 18.6827 125.855 17.152 125.295 15.808C124.773 14.4267 124.026 13.2507 123.055 12.28C122.122 11.272 121.002 10.5067 119.695 9.984C118.426 9.46133 117.045 9.2 115.551 9.2C114.058 9.2 112.658 9.46133 111.351 9.984C110.082 10.5067 108.962 11.272 107.991 12.28C107.058 13.2507 106.311 14.4267 105.751 15.808C105.229 17.152 104.967 18.6827 104.967 20.4C104.967 22.08 105.229 23.6107 105.751 24.992C106.311 26.3733 107.058 27.568 107.991 28.576C108.962 29.5467 110.082 30.2933 111.351 30.816C112.658 31.3387 114.058 31.6 115.551 31.6ZM151.518 40L138.806 0.799997H150.23L160.926 34.736H155.158L166.414 0.799997H176.606L187.246 34.736H181.702L192.734 0.799997H203.318L190.606 40H178.734L169.662 11.16H172.854L163.39 40H151.518ZM0.216875 88V48.8H20.2649C25.4169 48.8 29.2622 49.752 31.8009 51.656C34.3395 53.5227 35.6089 55.9867 35.6089 59.048C35.6089 61.064 35.0675 62.8373 33.9849 64.368C32.9395 65.8613 31.4462 67.056 29.5049 67.952C27.6009 68.8107 25.3235 69.24 22.6729 69.24L23.7929 66.552C26.5555 66.552 28.9635 66.9813 31.0169 67.84C33.0702 68.6613 34.6569 69.8747 35.7769 71.48C36.9342 73.048 37.5129 74.9707 37.5129 77.248C37.5129 80.6453 36.1315 83.296 33.3689 85.2C30.6435 87.0667 26.6489 88 21.3849 88H0.216875ZM11.1929 79.992H20.4889C22.3929 79.992 23.8302 79.6747 24.8009 79.04C25.8089 78.368 26.3129 77.36 26.3129 76.016C26.3129 74.672 25.8089 73.6827 24.8009 73.048C23.8302 72.376 22.3929 72.04 20.4889 72.04H10.4089V64.368H18.8089C20.6755 64.368 22.0755 64.0507 23.0089 63.416C23.9422 62.7813 24.4089 61.8293 24.4089 60.56C24.4089 59.2907 23.9422 58.3573 23.0089 57.76C22.0755 57.1253 20.6755 56.808 18.8089 56.808H11.1929V79.992ZM43.2559 88V48.8H61.1759C64.7599 48.8 67.8399 49.3787 70.4159 50.536C73.0293 51.6933 75.0453 53.3733 76.4639 55.576C77.8826 57.7413 78.5919 60.3173 78.5919 63.304C78.5919 66.2533 77.8826 68.8107 76.4639 70.976C75.0453 73.104 73.0293 74.7467 70.4159 75.904C67.8399 77.024 64.7599 77.584 61.1759 77.584H49.4159L54.3439 72.936V88H43.2559ZM67.5039 88L57.7599 73.72H69.5759L79.3759 88H67.5039ZM54.3439 74.112L49.4159 69.016H60.5039C62.8186 69.016 64.5359 68.512 65.6559 67.504C66.8133 66.496 67.3919 65.096 67.3919 63.304C67.3919 61.4747 66.8133 60.056 65.6559 59.048C64.5359 58.04 62.8186 57.536 60.5039 57.536H49.4159L54.3439 52.44V74.112ZM94.9011 63.976H113.101V72.264H94.9011V63.976ZM95.6851 79.432H116.181V88H84.7091V48.8H115.453V57.368H95.6851V79.432ZM117.63 88L134.934 48.8H145.854L163.214 88H151.678L138.126 54.232H142.494L128.942 88H117.63ZM127.094 80.384L129.95 72.208H149.102L151.958 80.384H127.094ZM166.358 88V48.8H184.894C189.224 48.8 193.032 49.6027 196.318 51.208C199.603 52.8133 202.16 55.072 203.99 57.984C205.856 60.896 206.79 64.368 206.79 68.4C206.79 72.3947 205.856 75.8667 203.99 78.816C202.16 81.728 199.603 83.9867 196.318 85.592C193.032 87.1973 189.224 88 184.894 88H166.358ZM177.446 79.152H184.446C186.686 79.152 188.627 78.7413 190.27 77.92C191.95 77.0613 193.256 75.8293 194.19 74.224C195.123 72.5813 195.59 70.64 195.59 68.4C195.59 66.1227 195.123 64.1813 194.19 62.576C193.256 60.9707 191.95 59.7573 190.27 58.936C188.627 58.0773 186.686 57.648 184.446 57.648H177.446V79.152Z" fill="white"/>
</svg>
